<svg width="14" height="14" viewBox="0 0 14 14" fill="none" xmlns="http://www.w3.org/2000/svg">
<path fill-rule="evenodd" clip-rule="evenodd" d="M5.20559 5.15746C5.15868 4.61994 4.68479 4.22229 4.14729 4.26942C3.6101 4.31652 3.21273 4.79007 3.25962 5.32728C3.3065 5.86449 3.77988 6.26205 4.31712 6.21539C4.85466 6.1687 5.2525 5.69498 5.20559 5.15746ZM4.21345 4.91811C4.39157 4.90752 4.54489 5.04255 4.55689 5.22057C4.56889 5.3986 4.43509 5.55299 4.25717 5.56641C4.07724 5.57999 3.92071 5.44434 3.90857 5.2643C3.89643 5.08426 4.03332 4.92882 4.21345 4.91811Z" fill="white"/>
<path d="M10.3824 4.23438C10.5247 4.23576 10.6345 4.29069 10.7036 4.4201C10.7471 4.50094 10.7561 4.59592 10.7286 4.6835C10.7085 4.74583 10.6711 4.80113 10.6206 4.8429C10.5531 4.89954 10.377 4.97945 10.2905 5.02239C10.1209 5.10634 9.95177 5.19126 9.7831 5.27715C9.79424 5.28243 9.80527 5.28779 9.81629 5.29324L10.2886 5.52936C10.4495 5.60983 10.6683 5.68143 10.727 5.86555C10.7548 5.953 10.7471 6.04788 10.7056 6.12973C10.6644 6.21172 10.592 6.27374 10.5047 6.30192C10.3444 6.35315 10.2298 6.28024 10.0915 6.20931L9.24977 5.78907C9.09897 5.71385 8.91505 5.63321 8.77922 5.53819C8.63805 5.43947 8.62169 5.18409 8.73611 5.05793C8.82413 4.96083 8.98908 4.8941 9.11064 4.83367L9.55856 4.61012L9.99482 4.39148C10.1108 4.3334 10.2544 4.24633 10.3824 4.23438Z" fill="white"/>
<path d="M4.01413 7.68399C4.05999 7.68156 4.11647 7.69038 4.15914 7.70617C4.37848 7.78721 4.3978 7.96903 4.46 8.16198C4.4898 8.25305 4.52512 8.34227 4.56575 8.42906C4.86948 9.0814 5.42232 9.58457 6.1003 9.82571C6.77115 10.0631 7.50863 10.0256 8.15195 9.72128C8.71507 9.45336 9.16788 8.99851 9.43324 8.43418C9.50871 8.26967 9.55141 8.12702 9.60503 7.95587C9.63737 7.85259 9.70984 7.76433 9.81031 7.71857C9.90573 7.67543 10.0145 7.67236 10.1122 7.71026C10.206 7.74675 10.2814 7.81916 10.3217 7.91145C10.3438 7.96175 10.3546 8.01633 10.3534 8.07129C10.35 8.20288 10.234 8.50007 10.1841 8.62949C10.0631 8.91619 9.90477 9.18564 9.7131 9.4308C9.145 10.1519 8.31333 10.6173 7.40158 10.7243C6.49751 10.8296 5.58838 10.5742 4.87145 10.0134C4.37233 9.62292 3.99094 9.10192 3.76949 8.50812C3.73024 8.40574 3.65892 8.20525 3.64851 8.09922C3.62559 7.86582 3.80051 7.70527 4.01413 7.68399Z" fill="white"/>
<path d="M14 7C14 10.866 10.866 14 7 14C3.13401 14 0 10.866 0 7C0 3.13401 3.13401 0 7 0C10.866 0 14 3.13401 14 7ZM0.754067 7C0.754067 10.4495 3.55047 13.2459 7 13.2459C10.4495 13.2459 13.2459 10.4495 13.2459 7C13.2459 3.55047 10.4495 0.754067 7 0.754067C3.55047 0.754067 0.754067 3.55047 0.754067 7Z" fill="white"/>
</svg>
